<svg xmlns="http://www.w3.org/2000/svg" width="217" height="103" viewBox="0 0 216.6 102.5"><path d="M115.6 14.8c0.1-0.1 0.2-0.2 0.3-0.4l0.9-2.5h5l0.9 2.5c0.1 0.1 0.1 0.3 0.3 0.4 0.1 0.1 0.3 0.1 0.5 0.1h1.7l-4.7-12.1h-2.3l-4.7 12.1h1.7C115.4 14.9 115.5 14.9 115.6 14.8zM118.9 6.4c0.1-0.2 0.1-0.4 0.2-0.6 0.1-0.2 0.2-0.5 0.2-0.8 0.1 0.3 0.2 0.5 0.2 0.8 0.1 0.2 0.2 0.5 0.2 0.6l1.5 4h-3.8L118.9 6.4z"/><path d="M129.6 13.2c-0.4 0-0.8-0.1-1.1-0.2s-0.6-0.2-0.8-0.4c-0.2-0.1-0.4-0.3-0.6-0.4 -0.2-0.1-0.3-0.2-0.5-0.2 -0.1 0-0.2 0-0.3 0.1s-0.2 0.1-0.2 0.2l-0.7 1.1c0.2 0.2 0.5 0.5 0.8 0.7 0.3 0.2 0.6 0.4 1 0.5 0.3 0.1 0.7 0.2 1.1 0.3s0.8 0.1 1.1 0.1c0.7 0 1.3-0.1 1.8-0.3 0.5-0.2 1-0.5 1.3-0.8 0.4-0.4 0.6-0.8 0.8-1.2 0.2-0.5 0.3-1 0.3-1.5s-0.1-0.9-0.2-1.3c-0.2-0.4-0.4-0.6-0.6-0.9 -0.3-0.2-0.6-0.4-0.9-0.6 -0.3-0.2-0.7-0.3-1-0.4 -0.3-0.1-0.7-0.2-1-0.3 -0.3-0.1-0.6-0.2-0.9-0.4 -0.3-0.1-0.5-0.3-0.6-0.5 -0.2-0.2-0.2-0.4-0.2-0.7 0-0.2 0-0.4 0.1-0.6s0.2-0.3 0.4-0.5c0.2-0.1 0.4-0.2 0.6-0.3 0.2-0.1 0.5-0.1 0.8-0.1s0.6 0 0.9 0.1c0.3 0.1 0.5 0.2 0.7 0.3 0.2 0.1 0.4 0.2 0.5 0.3 0.1 0.1 0.3 0.1 0.4 0.1 0.1 0 0.2 0 0.3-0.1 0.1-0.1 0.2-0.1 0.2-0.3l0.6-1.1c-0.4-0.4-0.9-0.7-1.5-0.9 -0.6-0.2-1.3-0.3-2-0.3 -0.6 0-1.2 0.1-1.7 0.3s-0.9 0.5-1.2 0.8c-0.3 0.3-0.6 0.7-0.8 1.1s-0.3 0.8-0.3 1.3c0 0.6 0.1 1 0.2 1.4 0.2 0.4 0.4 0.7 0.6 0.9 0.3 0.2 0.6 0.5 0.9 0.6 0.3 0.2 0.7 0.3 1 0.4 0.3 0.1 0.7 0.2 1 0.3 0.3 0.1 0.6 0.2 0.9 0.3s0.5 0.3 0.6 0.5c0.2 0.2 0.2 0.5 0.2 0.8 0 0.6-0.2 1-0.5 1.3C130.7 13.1 130.2 13.2 129.6 13.2z"/><path d="M136.4 13.3c0.5 0.6 1.2 1 1.9 1.3 0.8 0.3 1.6 0.5 2.5 0.5s1.7-0.2 2.5-0.5c0.8-0.3 1.4-0.7 1.9-1.3 0.5-0.6 0.9-1.2 1.2-2 0.3-0.8 0.4-1.6 0.4-2.5 0-0.9-0.1-1.7-0.4-2.5 -0.3-0.8-0.7-1.4-1.2-2 -0.5-0.5-1.2-1-1.9-1.3 -0.8-0.3-1.6-0.5-2.5-0.5s-1.7 0.2-2.5 0.5 -1.4 0.7-1.9 1.3c-0.5 0.6-1 1.2-1.2 2 -0.3 0.8-0.4 1.6-0.4 2.5 0 0.9 0.1 1.7 0.4 2.5C135.5 12.1 135.9 12.8 136.4 13.3zM137.3 7.1c0.2-0.5 0.4-1 0.8-1.3 0.3-0.4 0.7-0.6 1.2-0.8s1-0.3 1.6-0.3c0.6 0 1.1 0.1 1.6 0.3s0.9 0.5 1.2 0.8c0.3 0.4 0.6 0.8 0.8 1.3s0.3 1.1 0.3 1.8c0 0.7-0.1 1.3-0.3 1.8s-0.4 1-0.8 1.3c-0.3 0.4-0.7 0.6-1.2 0.8 -0.5 0.2-1 0.3-1.6 0.3 -0.6 0-1.1-0.1-1.6-0.3 -0.5-0.2-0.9-0.5-1.2-0.8 -0.3-0.4-0.6-0.8-0.8-1.3S137 9.6 137 8.9C137 8.3 137.1 7.7 137.3 7.1z"/><path d="M149.6 13.3c0.5 0.5 1.1 1 1.8 1.3 0.7 0.3 1.5 0.5 2.4 0.5 1 0 1.9-0.2 2.6-0.5 0.7-0.3 1.3-0.8 1.8-1.4l-0.9-1c-0.1-0.1-0.2-0.1-0.3-0.1 -0.1 0-0.1 0-0.2 0s-0.1 0.1-0.2 0.1c-0.2 0.2-0.4 0.3-0.6 0.4s-0.4 0.2-0.6 0.3c-0.2 0.1-0.4 0.1-0.7 0.2 -0.2 0-0.5 0.1-0.8 0.1 -0.5 0-1-0.1-1.4-0.3 -0.4-0.2-0.8-0.5-1.2-0.8 -0.3-0.4-0.6-0.8-0.8-1.3s-0.3-1.1-0.3-1.8 0.1-1.2 0.3-1.8c0.2-0.5 0.5-1 0.8-1.3 0.3-0.4 0.8-0.6 1.2-0.8 0.5-0.2 1-0.3 1.6-0.3 0.5 0 0.9 0.1 1.2 0.2s0.6 0.2 0.8 0.3c0.2 0.1 0.4 0.2 0.5 0.3 0.1 0.1 0.3 0.2 0.4 0.2 0.1 0 0.2 0 0.3-0.1 0.1-0.1 0.1-0.1 0.2-0.2l0.8-1c-0.5-0.5-1.1-0.9-1.7-1.1 -0.7-0.3-1.5-0.4-2.3-0.4 -0.9 0-1.8 0.2-2.5 0.5 -0.8 0.3-1.4 0.7-2 1.3 -0.5 0.5-1 1.2-1.3 1.9C148.2 7.2 148 8 148 8.9s0.1 1.7 0.4 2.5C148.7 12.2 149.1 12.8 149.6 13.3z"/><rect x="160.2" y="2.9" width="2.3" height="12.1"/><path d="M166.2 14.8c0.1-0.1 0.2-0.2 0.3-0.4l0.9-2.5h5l0.9 2.5c0.1 0.1 0.1 0.3 0.3 0.4 0.1 0.1 0.3 0.1 0.5 0.1h1.7l-4.8-12h-2.3l-4.7 12h1.7C165.9 14.9 166.1 14.9 166.2 14.8zM169.4 6.4c0.1-0.2 0.1-0.4 0.2-0.6 0.1-0.2 0.2-0.5 0.2-0.8 0.1 0.3 0.2 0.5 0.2 0.8 0.1 0.2 0.2 0.5 0.2 0.6l1.5 4H168L169.4 6.4z"/><path d="M177.5 13.3c0.5 0.5 1.1 1 1.8 1.3 0.7 0.3 1.5 0.5 2.4 0.5 1 0 1.9-0.2 2.6-0.5 0.7-0.3 1.3-0.8 1.8-1.4l-0.9-1c-0.1-0.1-0.2-0.1-0.3-0.1 -0.1 0-0.1 0-0.2 0 -0.1 0-0.1 0.1-0.2 0.1 -0.2 0.2-0.4 0.3-0.6 0.4 -0.2 0.1-0.4 0.2-0.6 0.3s-0.4 0.1-0.7 0.2c-0.2 0-0.5 0.1-0.8 0.1 -0.5 0-1-0.1-1.4-0.3 -0.4-0.2-0.8-0.5-1.2-0.8 -0.3-0.4-0.6-0.8-0.8-1.3 -0.2-0.5-0.3-1.1-0.3-1.8s0.1-1.2 0.3-1.8c0.2-0.5 0.5-1 0.8-1.3 0.3-0.4 0.8-0.6 1.2-0.8 0.5-0.2 1-0.3 1.6-0.3 0.5 0 0.9 0.1 1.2 0.2 0.3 0.1 0.6 0.2 0.8 0.3 0.2 0.1 0.4 0.2 0.5 0.3 0.1 0.1 0.3 0.2 0.4 0.2 0.1 0 0.2 0 0.3-0.1 0.1-0.1 0.1-0.1 0.2-0.2l0.8-1c-0.5-0.5-1.1-0.9-1.7-1.1C183.8 3.1 183 3 182.2 3c-0.9 0-1.8 0.2-2.5 0.5 -0.8 0.3-1.4 0.7-2 1.3 -0.5 0.5-1 1.2-1.3 1.9 -0.3 0.8-0.5 1.6-0.5 2.5 0 0.9 0.1 1.7 0.4 2.5C176.6 12.2 177 12.8 177.5 13.3z"/><rect x="188.1" y="2.9" width="2.3" height="12.1"/><path d="M202.9 4.5c-0.5-0.5-1.2-1-1.9-1.3 -0.8-0.3-1.6-0.5-2.5-0.5 -0.9 0-1.7 0.2-2.5 0.5 -0.8 0.3-1.4 0.7-1.9 1.3s-1 1.2-1.2 2c-0.3 0.8-0.4 1.6-0.4 2.5s0.1 1.7 0.4 2.5c0.3 0.8 0.7 1.4 1.2 2s1.2 1 1.9 1.3c0.8 0.3 1.6 0.5 2.5 0.5 0.9 0 1.7-0.2 2.5-0.5 0.8-0.3 1.4-0.7 1.9-1.3s0.9-1.2 1.2-2 0.4-1.6 0.4-2.5 -0.1-1.7-0.4-2.5C203.9 5.7 203.5 5.1 202.9 4.5zM202.1 10.7c-0.2 0.5-0.4 1-0.8 1.3 -0.3 0.4-0.7 0.6-1.2 0.8 -0.5 0.2-1 0.3-1.6 0.3 -0.6 0-1.1-0.1-1.6-0.3 -0.5-0.2-0.9-0.5-1.2-0.8 -0.3-0.4-0.6-0.8-0.8-1.3 -0.2-0.5-0.3-1.1-0.3-1.8 0-0.7 0.1-1.3 0.3-1.8 0.2-0.5 0.4-1 0.8-1.3 0.3-0.4 0.7-0.6 1.2-0.8s1-0.3 1.6-0.3c0.6 0 1.1 0.1 1.6 0.3s0.9 0.5 1.2 0.8c0.3 0.4 0.6 0.8 0.8 1.3s0.3 1.1 0.3 1.8C202.3 9.6 202.2 10.2 202.1 10.7z"/><path d="M198.8 2c0.1 0 0.1 0 0.2 0 0.1 0 0.1 0 0.2-0.1 0.1 0 0.1-0.1 0.2-0.1l2.5-1.8h-2.3c-0.1 0-0.2 0-0.3 0s-0.1 0-0.2 0.1c-0.1 0-0.1 0.1-0.2 0.1 -0.1 0-0.1 0.1-0.2 0.2L196.9 2h1.6C198.6 2 198.7 2 198.8 2z"/><path d="M214.6 2.9v7.3c0 0.2 0 0.3 0 0.5 0 0.2 0 0.4 0 0.6l-6.4-8.1c-0.1-0.1-0.1-0.1-0.2-0.2 0.1 0 0 0 0-0.1 -0.1 0-0.1 0-0.2-0.1 -0.1 0-0.1 0-0.2 0h-1.2v12.1h2V7.5c0-0.1 0-0.3 0-0.5s0-0.4 0-0.5l6.3 8c0.1 0.1 0.2 0.2 0.3 0.3 0.1 0.1 0.3 0.1 0.4 0.1h1.2v-12H214.6z"/><polygon points="122.2 23.1 122.2 21.3 114.6 21.3 114.6 33.4 122.2 33.4 122.2 31.6 116.8 31.6 116.8 28.2 121.1 28.2 121.1 26.4 116.8 26.4 116.8 23.1 "/><path d="M129 33.2c0.5-0.2 1-0.5 1.3-0.8 0.4-0.4 0.6-0.8 0.8-1.2 0.2-0.5 0.3-1 0.3-1.5s-0.1-0.9-0.2-1.3c-0.2-0.4-0.4-0.6-0.6-0.9 -0.3-0.2-0.6-0.4-0.9-0.6 -0.3-0.2-0.7-0.3-1-0.4 -0.3-0.1-0.7-0.2-1-0.3 -0.3-0.1-0.6-0.2-0.9-0.4 -0.3-0.1-0.5-0.3-0.6-0.5 -0.2-0.2-0.2-0.4-0.2-0.7 0-0.2 0-0.4 0.1-0.6 0.1-0.2 0.2-0.3 0.4-0.5 0.2-0.1 0.4-0.2 0.6-0.3 0.2-0.1 0.5-0.1 0.8-0.1 0.3 0 0.6 0 0.9 0.1 0.3 0.1 0.5 0.2 0.7 0.3s0.4 0.2 0.5 0.3c0.1 0.1 0.3 0.1 0.4 0.1 0.1 0 0.2 0 0.3-0.1 0.1-0.1 0.2-0.1 0.2-0.3l0.6-1.1c-0.4-0.4-0.9-0.7-1.5-0.9 -0.6-0.2-1.3-0.3-2-0.3 -0.6 0-1.2 0.1-1.7 0.3s-0.9 0.5-1.2 0.8c-0.3 0.3-0.6 0.7-0.8 1.1s-0.3 0.8-0.3 1.3c0 0.6 0.1 1 0.2 1.4 0.2 0.4 0.4 0.7 0.6 0.9 0.3 0.2 0.6 0.5 0.9 0.6 0.3 0.2 0.7 0.3 1 0.4 0.3 0.1 0.7 0.2 1 0.3 0.3 0.1 0.6 0.2 0.9 0.3s0.5 0.3 0.6 0.5c0.2 0.2 0.2 0.5 0.2 0.8 0 0.6-0.2 1-0.5 1.3 -0.4 0.3-0.8 0.5-1.5 0.5 -0.4 0-0.8-0.1-1.1-0.2s-0.6-0.2-0.8-0.4c-0.2-0.1-0.4-0.3-0.6-0.4 -0.2-0.1-0.3-0.2-0.5-0.2 -0.1 0-0.2 0-0.3 0.1 -0.1 0.1-0.2 0.1-0.2 0.2l-0.7 1.1c0.2 0.2 0.5 0.5 0.8 0.7 0.3 0.2 0.6 0.4 1 0.5 0.3 0.1 0.7 0.2 1.1 0.3 0.4 0.1 0.8 0.1 1.1 0.1C127.9 33.5 128.5 33.4 129 33.2z"/><path d="M141.5 26.8c0.2-0.5 0.3-1 0.3-1.6 0-0.6-0.1-1.1-0.3-1.6s-0.5-0.9-0.9-1.2c-0.4-0.3-0.9-0.6-1.5-0.8 -0.6-0.2-1.3-0.3-2.1-0.3h-3.9v12.1h2.2v-4.2h1.7c0.8 0 1.5-0.1 2.1-0.3 0.6-0.2 1.1-0.5 1.5-0.8C141 27.7 141.3 27.3 141.5 26.8zM139.4 26.1c-0.1 0.3-0.3 0.5-0.5 0.7 -0.2 0.2-0.5 0.3-0.8 0.4 -0.3 0.1-0.7 0.2-1.1 0.2h-1.7V23h1.7c0.4 0 0.8 0 1.1 0.1s0.6 0.2 0.8 0.4c0.2 0.2 0.4 0.4 0.5 0.7 0.1 0.3 0.2 0.6 0.2 0.9C139.5 25.5 139.5 25.8 139.4 26.1z"/><path d="M148.1 21.3h-2.3l-4.7 12.1h1.7c0.2 0 0.3-0.1 0.5-0.2 0.1-0.1 0.2-0.2 0.3-0.4l0.9-2.5h5l0.9 2.5c0.1 0.1 0.1 0.3 0.3 0.4 0.1 0.1 0.3 0.1 0.5 0.1h1.7L148.1 21.3zM145 28.8l1.5-4c0.1-0.2 0.1-0.4 0.2-0.6 0.1-0.2 0.2-0.5 0.2-0.8 0.1 0.3 0.2 0.5 0.2 0.8 0.1 0.2 0.2 0.5 0.2 0.6l1.5 4H145z"/><path d="M157.2 19.1c-0.1 0.2-0.2 0.4-0.3 0.6 -0.1 0.2-0.1 0.5-0.1 0.8h1.1c0-0.2 0.1-0.3 0.1-0.4 0.1-0.1 0.2-0.1 0.4-0.1 0.1 0 0.2 0 0.4 0.1 0.1 0.1 0.3 0.1 0.5 0.2 0.2 0.1 0.3 0.1 0.5 0.2s0.4 0.1 0.6 0.1c0.3 0 0.5 0 0.7-0.1s0.4-0.2 0.5-0.4c0.1-0.2 0.2-0.4 0.3-0.6 0.1-0.2 0.1-0.5 0.1-0.8h-1.1c0 0.2-0.1 0.3-0.1 0.4 -0.1 0.1-0.2 0.1-0.4 0.1 -0.1 0-0.2 0-0.4-0.1 -0.1-0.1-0.3-0.1-0.5-0.2s-0.3-0.1-0.5-0.2c-0.2-0.1-0.4-0.1-0.6-0.1 -0.2 0-0.5 0-0.7 0.1C157.5 18.8 157.3 19 157.2 19.1z"/><path d="M162.7 33.3c0.1 0.1 0.3 0.1 0.4 0.1h1.2V21.3h-2v7.3c0 0.2 0 0.3 0 0.5 0 0.2 0 0.4 0 0.6l-6.4-8.1c-0.1-0.1-0.1-0.1-0.2-0.2 0 0-0.1-0.1-0.2-0.1 -0.1 0-0.1 0-0.2-0.1 -0.1 0-0.1 0-0.2 0h-1.2v12.1h2V26c0-0.1 0-0.3 0-0.5s0-0.4 0-0.5l6.3 8C162.5 33.1 162.6 33.2 162.7 33.3z"/><path d="M177.8 29.8c0.3-0.8 0.4-1.6 0.4-2.5 0-0.9-0.1-1.7-0.4-2.5 -0.3-0.8-0.7-1.4-1.2-2 -0.5-0.5-1.2-1-1.9-1.3 -0.8-0.3-1.6-0.5-2.5-0.5 -0.9 0-1.7 0.2-2.5 0.5 -0.8 0.3-1.4 0.7-1.9 1.3 -0.5 0.6-1 1.2-1.2 2 -0.3 0.8-0.4 1.6-0.4 2.5 0 0.9 0.1 1.7 0.4 2.5 0.3 0.8 0.7 1.4 1.2 2 0.5 0.6 1.2 1 1.9 1.3 0.8 0.3 1.6 0.5 2.5 0.5 0.9 0 1.7-0.2 2.5-0.5 0.8-0.3 1.4-0.7 1.9-1.3C177.1 31.2 177.6 30.6 177.8 29.8zM175.7 29.1c-0.2 0.5-0.4 1-0.8 1.3 -0.3 0.4-0.7 0.6-1.2 0.8 -0.5 0.2-1 0.3-1.6 0.3 -0.6 0-1.1-0.1-1.6-0.3 -0.5-0.2-0.9-0.5-1.2-0.8 -0.3-0.4-0.6-0.8-0.8-1.3s-0.3-1.1-0.3-1.8c0-0.7 0.1-1.3 0.3-1.8s0.4-1 0.8-1.3c0.3-0.4 0.7-0.6 1.2-0.8 0.5-0.2 1-0.3 1.6-0.3 0.6 0 1.1 0.1 1.6 0.3 0.5 0.2 0.9 0.5 1.2 0.8 0.3 0.4 0.6 0.8 0.8 1.3 0.2 0.5 0.3 1.1 0.3 1.8C176 28 175.9 28.6 175.7 29.1z"/><polygon points="180.1 21.3 180.1 33.4 187.1 33.4 187.1 31.5 182.3 31.5 182.3 21.3 "/><path d="M197.1 33.2c0.1 0.1 0.3 0.1 0.5 0.1h1.7l-4.7-12.1h-2.3l-4.7 12.1h1.7c0.2 0 0.3-0.1 0.5-0.2 0.1-0.1 0.2-0.2 0.3-0.4l0.9-2.5h5l0.9 2.5C196.9 33 197 33.1 197.1 33.2zM191.5 28.8l1.5-4c0.1-0.2 0.1-0.4 0.2-0.6 0.1-0.2 0.2-0.5 0.2-0.8 0.1 0.3 0.2 0.5 0.2 0.8 0.1 0.2 0.2 0.5 0.2 0.6l1.5 4H191.5z"/><path d="M123.6 41.4c-0.5-0.5-1.2-0.9-1.9-1.2 -0.8-0.3-1.6-0.4-2.5-0.4h-4.6v12.1h4.6c0.9 0 1.7-0.1 2.5-0.4 0.8-0.3 1.4-0.7 1.9-1.2s0.9-1.2 1.2-1.9c0.3-0.7 0.4-1.6 0.4-2.4 0-0.9-0.1-1.7-0.4-2.4C124.6 42.6 124.2 42 123.6 41.4zM122.7 47.6c-0.2 0.5-0.4 1-0.8 1.3 -0.3 0.4-0.7 0.6-1.2 0.8 -0.5 0.2-1 0.3-1.6 0.3h-2.3v-8.5h2.3c0.6 0 1.1 0.1 1.6 0.3 0.5 0.2 0.9 0.5 1.2 0.8 0.3 0.4 0.6 0.8 0.8 1.3 0.2 0.5 0.3 1.1 0.3 1.8C123 46.4 122.9 47 122.7 47.6z"/><polygon points="127.1 51.8 134.7 51.8 134.7 50 129.3 50 129.3 46.6 133.5 46.6 133.5 44.9 129.3 44.9 129.3 41.5 134.7 41.5 134.7 39.7 127.1 39.7 "/><path d="M148.9 41.4c-0.6-0.5-1.2-1-2-1.3 -0.8-0.3-1.6-0.5-2.6-0.5h-4.7v12.2h4.7c0.9 0 1.8-0.2 2.6-0.5 0.8-0.3 1.4-0.7 2-1.3 0.6-0.5 1-1.2 1.3-1.9 0.3-0.7 0.5-1.6 0.5-2.4 0-0.9-0.2-1.7-0.5-2.4C149.9 42.6 149.5 41.9 148.9 41.4zM147.5 47.4c-0.2 0.5-0.4 0.9-0.7 1.2 -0.3 0.3-0.7 0.6-1.1 0.8 -0.4 0.2-0.9 0.3-1.4 0.3h-1.9v-7.8h1.9c0.5 0 1 0.1 1.4 0.3 0.4 0.2 0.8 0.4 1.1 0.8 0.3 0.3 0.5 0.7 0.7 1.2s0.2 1 0.2 1.6C147.8 46.3 147.7 46.9 147.5 47.4z"/><path d="M158.9 47.1c-0.2-0.1-0.3-0.3-0.5-0.4 0.4-0.2 0.7-0.3 1-0.6 0.3-0.2 0.6-0.5 0.8-0.8 0.2-0.3 0.4-0.6 0.5-1 0.1-0.4 0.2-0.7 0.2-1.1 0-0.5-0.1-1-0.3-1.4 -0.2-0.4-0.5-0.8-0.9-1.1 -0.4-0.3-0.9-0.6-1.5-0.8 -0.6-0.2-1.4-0.3-2.2-0.3h-4v12.2h2.8v-4.5h0.7c0.2 0 0.4 0 0.5 0.1 0.1 0.1 0.2 0.2 0.3 0.3l2 3.5c0.2 0.4 0.5 0.5 1 0.5h2.6l-2.6-4.2C159.3 47.4 159.1 47.2 158.9 47.1zM158 44.2c-0.1 0.2-0.2 0.4-0.4 0.6 -0.2 0.2-0.4 0.3-0.7 0.4 -0.3 0.1-0.6 0.1-1 0.1h-1.1v-3.6h1.1c0.7 0 1.3 0.2 1.6 0.5 0.3 0.3 0.5 0.7 0.5 1.3C158.1 43.7 158.1 44 158 44.2z"/><path d="M170.1 46.9c0 0.4-0.1 0.8-0.2 1.1 -0.1 0.3-0.3 0.6-0.5 0.9 -0.2 0.2-0.5 0.4-0.8 0.5s-0.6 0.2-1 0.2c-0.4 0-0.7-0.1-1-0.2s-0.5-0.3-0.8-0.5c-0.2-0.2-0.4-0.5-0.5-0.9 -0.1-0.3-0.2-0.7-0.2-1.1v-7.2h-2.8v7.2c0 0.7 0.1 1.4 0.4 2.1 0.2 0.6 0.6 1.2 1 1.6 0.5 0.5 1 0.8 1.6 1.1 0.6 0.3 1.4 0.4 2.2 0.4s1.5-0.1 2.2-0.4c0.6-0.3 1.2-0.6 1.6-1.1 0.5-0.5 0.8-1 1-1.6s0.4-1.3 0.4-2.1v-7.2h-2.8v7.2H170.1z"/><path d="M183.9 43.6c0-0.6-0.1-1.1-0.3-1.6s-0.5-0.9-0.9-1.3c-0.4-0.4-0.9-0.6-1.5-0.8 -0.6-0.2-1.4-0.3-2.2-0.3h-4.3v12.2h2.8v-4.1h1.5c0.8 0 1.6-0.1 2.2-0.3 0.6-0.2 1.1-0.5 1.5-0.8 0.4-0.4 0.7-0.8 0.9-1.3S183.9 44.2 183.9 43.6zM180.6 45.1c-0.3 0.4-0.9 0.5-1.6 0.5h-1.5v-3.9h1.5c0.4 0 0.7 0 0.9 0.1 0.3 0.1 0.5 0.2 0.6 0.4 0.2 0.2 0.3 0.4 0.4 0.6 0.1 0.2 0.1 0.5 0.1 0.8C181.1 44.3 180.9 44.7 180.6 45.1z"/><path d="M187.7 39.7L183 51.8h2.2c0.2 0 0.4-0.1 0.6-0.2s0.3-0.3 0.3-0.4l0.7-2.1h4.6l0.7 2.1c0.1 0.2 0.2 0.3 0.3 0.4 0.2 0.1 0.4 0.2 0.6 0.2h2.2l-4.7-12.2h-2.8V39.7zM187.5 47.2l1.1-3.3c0.1-0.2 0.2-0.5 0.3-0.8 0.1-0.3 0.2-0.6 0.3-0.9 0.1 0.3 0.2 0.6 0.3 0.9 0.1 0.3 0.2 0.5 0.3 0.7l1.1 3.3h-3.4V47.2z"/><polygon points="199.1 39.7 196.3 39.7 196.3 51.8 203.6 51.8 203.6 49.6 199.1 49.6 "/><path d="M27.2 67.3c-0.7 1.4-1.4 3.5-0.5 4.9 1.1 1.5 3.2 0.6 3.9-0.7 1.1-2.6 1.7-6.2 1.5-9.1C30.2 63.6 28.2 65.3 27.2 67.3z"/><path d="M0 102.5h100.5V2H0V102.5zM41.2 24.6c0.1-0.2 2.4-5.1 6.1-5.7 0.4-0.1 0.8-0.1 1.1-0.1 2.4 0 4.4 1.3 6 2.3 0.9 0.6 1.7 1.1 2.3 1.2 1.5 0.2 3.1-3.1 3.5-4.3 0-0.1 0.2-0.2 0.3-0.2 0.1 0 0.3 0.1 0.3 0.2 0 0 2.1 3.9-1.3 7 -0.8 0.8-1.8 1.1-2.8 1.1 -1.6 0-3.1-0.9-4.5-1.6 -1.1-0.6-2.1-1.2-3-1.3 -2.5-0.2-3.6 3.1-3.7 3.1 0 0.1-0.1 0.2-0.2 0.2h-0.1 -0.1L41.4 25c-0.1 0-0.2-0.1-0.2-0.2C41.1 24.8 41.1 24.7 41.2 24.6zM16.3 47.6c2.9-4.4 8.6-8 14-6.2 5.4 1.8 6.6 9.6 7.1 14.4 0 0 1.6-0.4 2.3-0.6 0 0 0.1-1.5 0.1-1.6 0.2-2 0.3-3.9 0.7-5.9 0.8-3.8 1.9-7.5 3.5-11 2.1-4.5 6.3-9.4 11.8-5.3 3.8 2.9 3.8 9.3 2.6 13.6 -1.7 6.2-7.6 10.7-13.5 12.7 -0.3 2 0.6 6.2 0.6 6.2 0.5 1.9 1 3.8 2.3 5.2 3.1 3.3 7.8 1.6 9-2.4 1.5-4.7 2.3-9.7 3-14.7 0.3-2.4 0.7-4.9 1-7.3 0.2-1.6 0.9-6.1 0.9-6.1 7.3-0.2 15.3 2 18.9 9 3.6 7.1 4.1 17.6-2 23.5 -2.8 2.7-6.6 4.3-10.5 5 -0.7 0.1-2.3 0.3-3.6 0.4 -0.8 0.1-1.5 0-1.9-0.1 0 0 0.5-3.3 0.6-3.7 0.2-1.1 0.1-1.7 1.3-1.6 0.2 0 0.5 0 0.7 0 3.5 0 7-1.2 9.5-3.7 2.7-2.7 3.4-6.4 3.2-10.1 -0.3-7-4.4-14.3-12.2-14.3 -0.8 5.8-1.6 11.7-2.4 17.6 -0.5 4.2-1.3 9.1-4.3 12.3 -3.4 3.7-8.9 3.6-12.8 0.9 -4.6-3.2-6.3-9.5-6.6-14.8 -0.6 0.2-1.2 0.4-1.8 0.6 -0.1 2.9 0 5.8-0.5 8.6 -0.3 2.1-0.6 4.4-2 6.1 -2.8 3.3-8.2 2.5-11.4 0.5 -3.7-2.3-4.4-6-1.9-9.5 1.3-1.9 3.1-3.4 5-4.8 1.3-0.9 5.2-3.1 5.2-3.1s-0.1-4.5-0.2-5.1c-0.1-1.5-0.3-3.1-0.8-4.5 -0.9-2.9-2.7-4.6-5.6-2.7 -1.3 0.9-2.3 2.1-3.2 3.4C22 49.2 21 52 20.3 52.2c-0.9 0.3-3.5-1.3-4.4-1.7C14.4 49.8 15.6 48.5 16.3 47.6zM66.3 64.1l1.8-14c0 0 6 1.6 5.5 8.8C73.2 65.3 66.3 64.1 66.3 64.1z"/><path d="M52 36.6c-6.5-1.8-7.3 17-7.3 17C51.6 51.6 57.7 38.2 52 36.6z"/></svg>